<?xml version="1.0" encoding="utf-8"?>
<!-- Generator: Adobe Illustrator 23.0.3, SVG Export Plug-In . SVG Version: 6.00 Build 0)  -->
<svg version="1.1" id="Layer_1" xmlns="http://www.w3.org/2000/svg" xmlns:xlink="http://www.w3.org/1999/xlink" x="0px" y="0px"
	 viewBox="0 0 430.4 75.4" style="enable-background:new 0 0 430.4 75.4;" xml:space="preserve">
<style type="text/css">
	.st0{fill:#FFFFFF;}
</style>
<g>
	<g>
		<g>
			<g>
				<path class="st0" d="M2.3,6.5C2.3,5.7,2.9,5,3.8,5h5.5c0.8,0,1.5,0.7,1.5,1.5v16.9L26.5,5.6C26.8,5.3,27.2,5,27.7,5H34
					c1.2,0,1.8,1.3,1,2.3L18.7,25.6l17.5,21c0.6,0.8,0.1,2.2-1.1,2.2h-6.8c-0.6,0-1-0.3-1.1-0.4L10.8,28.2v19.1
					c0,0.8-0.7,1.5-1.5,1.5H3.8c-0.9,0-1.5-0.7-1.5-1.5V6.5z"/>
				<path class="st0" d="M50.1,47.1L69.5,5c0.2-0.4,0.5-0.7,1.1-0.7h0.6c0.6,0,0.9,0.3,1.1,0.7l19.3,42.1c0.4,0.8-0.1,1.6-1.1,1.6
					H85c-0.9,0-1.4-0.4-1.8-1.3l-3.1-6.8H61.4l-3.1,6.8c-0.3,0.6-0.8,1.3-1.8,1.3h-5.4C50.2,48.7,49.7,47.9,50.1,47.1z M77.1,33.8
					L70.8,20h-0.2l-6.1,13.8H77.1z"/>
				<path class="st0" d="M128.7,4.3c12.5,0,22.5,10.1,22.5,22.6c0,12.5-10,22.5-22.5,22.5c-12.5,0-22.5-9.9-22.5-22.5
					C106.2,14.4,116.2,4.3,128.7,4.3z M128.7,41.2c7.9,0,14.4-6.4,14.4-14.3c0-7.9-6.5-14.4-14.4-14.4c-7.9,0-14.3,6.6-14.3,14.4
					C114.3,34.8,120.8,41.2,128.7,41.2z"/>
				<path class="st0" d="M169.3,42.6l2.3-3.9c0.5-0.9,1.6-0.9,2.1-0.4c0.3,0.2,5.4,3.9,9.4,3.9c3.3,0,5.7-2.1,5.7-4.8
					c0-3.2-2.7-5.4-7.9-7.5c-5.9-2.4-11.8-6.1-11.8-13.5c0-5.6,4.1-12,14.1-12c6.4,0,11.3,3.3,12.5,4.2c0.6,0.4,0.8,1.4,0.4,2.1
					l-2.4,3.6c-0.5,0.8-1.4,1.3-2.2,0.8c-0.5-0.3-5.3-3.4-8.7-3.4c-3.6,0-5.5,2.4-5.5,4.4c0,2.9,2.3,4.9,7.4,7
					c6.1,2.4,13.1,6.1,13.1,14.1c0,6.4-5.6,12.4-14.4,12.4c-7.9,0-12.5-3.7-13.8-4.9C169.1,43.9,168.7,43.6,169.3,42.6z"/>
				<path class="st0" d="M218.3,6.2c0-0.6,0.5-1.2,1.2-1.2h14.7c7.7,0,14,6.3,14,13.8c0,7.8-6.3,14.1-14,14.1h-7.8v14.7
					c0,0.6-0.6,1.2-1.2,1.2h-5.8c-0.7,0-1.2-0.6-1.2-1.2V6.2z M233.7,25.2c3.5,0,6.4-2.8,6.4-6.5c0-3.4-2.9-6.1-6.4-6.1h-7.3v12.6
					H233.7z"/>
				<path class="st0" d="M267.7,6.2c0-0.6,0.6-1.2,1.2-1.2h5.8c0.6,0,1.2,0.6,1.2,1.2v41.4c0,0.6-0.6,1.2-1.2,1.2h-5.8
					c-0.6,0-1.2-0.6-1.2-1.2V6.2z"/>
				<path class="st0" d="M299.8,6.2c0-0.6,0.5-1.2,1.2-1.2h5.8c0.6,0,1.2,0.6,1.2,1.2v35.1h15.9c0.7,0,1.2,0.6,1.2,1.2v5.1
					c0,0.6-0.5,1.2-1.2,1.2H301c-0.7,0-1.2-0.6-1.2-1.2V6.2z"/>
				<path class="st0" d="M362.8,4.3c12.5,0,22.5,10.1,22.5,22.6c0,12.5-10,22.5-22.5,22.5c-12.5,0-22.5-9.9-22.5-22.5
					C340.3,14.4,350.3,4.3,362.8,4.3z M362.8,41.2c7.9,0,14.4-6.4,14.4-14.3c0-7.9-6.5-14.4-14.4-14.4c-7.9,0-14.3,6.6-14.3,14.4
					C348.5,34.8,354.9,41.2,362.8,41.2z"/>
				<path class="st0" d="M411.4,12.5h-9.6c-0.7,0-1.2-0.6-1.2-1.2V6.2c0-0.6,0.5-1.2,1.2-1.2h27.3c0.7,0,1.2,0.6,1.2,1.2v5.1
					c0,0.6-0.5,1.2-1.2,1.2h-9.6v35.1c0,0.6-0.6,1.2-1.2,1.2h-5.8c-0.6,0-1.2-0.6-1.2-1.2V12.5z"/>
			</g>
			<path class="st0" d="M1.2,71.1c-0.6,0-1.2-0.6-1.2-1.2v-5.8c0-0.6,0.6-1.2,1.2-1.2h427.3c0.6,0,1.2,0.6,1.2,1.2v5.8
				c0,0.6-0.6,1.2-1.2,1.2H1.2z"/>
		</g>
	</g>
</g>
</svg>
